HIERARCHY
ROOT reference
{
  OFFSET 0 0 0
  CHANNELS 6 Xposition Yposition Zposition Zrotation Xrotation Yrotation
  JOINT Hips
  {
    OFFSET 346.547 88.4868 223.89
    CHANNELS 3 Zrotation Xrotation Yrotation
    JOINT RightUpLeg
    {
      OFFSET -9.27468 -1.51611 -0.00175448
      CHANNELS 3 Zrotation Xrotation Yrotation
      JOINT RightLeg
      {
        OFFSET -0.00464511 -41.8738 0.0184652
        CHANNELS 3 Zrotation Xrotation Yrotation
        JOINT RightFoot
        {
          OFFSET -0.626239 -42.3044 -0.171503
          CHANNELS 3 Zrotation Xrotation Yrotation
          End Site
          {
            OFFSET 0 -7.69 17.5
          }
        }
      }
    }
    JOINT LeftUpLeg
    {
      OFFSET 9.30083 -1.68454 -0.0454748
      CHANNELS 3 Zrotation Xrotation Yrotation
      JOINT LeftLeg
      {
        OFFSET 0.0692631 -41.8513 -0.097029
        CHANNELS 3 Zrotation Xrotation Yrotation
        JOINT LeftFoot
        {
          OFFSET 0.520945 -41.523 0.446349
          CHANNELS 3 Zrotation Xrotation Yrotation
          End Site
          {
            OFFSET 0 -7.69 17.5
          }
        }
      }
    }
    JOINT Spine
    {
      OFFSET 0.0770133 14.2992 0.0590021
      CHANNELS 3 Zrotation Xrotation Yrotation
      JOINT Spine1
      {
        OFFSET 0.0471461 9.71665 0.020973
        CHANNELS 3 Zrotation Xrotation Yrotation
        JOINT Spine2
        {
          OFFSET 0.051283 10.117 0.000913966
          CHANNELS 3 Zrotation Xrotation Yrotation
          JOINT Spine3
          {
            OFFSET 0.0447963 9.71088 0.00221408
            CHANNELS 3 Zrotation Xrotation Yrotation
            JOINT Neck
            {
              OFFSET 0.115655 10.3749 0.0448519
              CHANNELS 3 Zrotation Xrotation Yrotation
              JOINT Head
              {
                OFFSET 0.0937003 9.47807 0.0215077
                CHANNELS 3 Zrotation Xrotation Yrotation
                End Site
                {
                  OFFSET 0 15.95 0
                }
              }
            }
            JOINT RightShoulder
            {
              OFFSET -3.17023 6.91072 -0.0050072
              CHANNELS 3 Zrotation Xrotation Yrotation
              JOINT RightArm
              {
                OFFSET -12.7573 0.00694711 0.0313031
                CHANNELS 3 Zrotation Xrotation Yrotation
                JOINT RightForeArm
                {
                  OFFSET -26.5152 -0.0619338 -0.0331286
                  CHANNELS 3 Zrotation Xrotation Yrotation
                  JOINT RightHand
                  {
                    OFFSET -25.9971 0.0398378 -0.0269922
                    CHANNELS 3 Zrotation Xrotation Yrotation
                    JOINT RightHandThumb1
                    {
                      OFFSET -2.48905 0.190105 3.12053
                      CHANNELS 3 Zrotation Xrotation Yrotation
                      JOINT RightHandThumb2
                      {
                        OFFSET -3.68274 0 0
                        CHANNELS 3 Zrotation Xrotation Yrotation
                        JOINT RightHandThumb3
                        {
                          OFFSET -2.55832 0 0
                          CHANNELS 3 Zrotation Xrotation Yrotation
                          End Site
                          {
                            OFFSET -2.194 0 0
                          }
                        }
                      }
                    }
                    JOINT RightInHandIndex
                    {
                      OFFSET -3.22368 0.508421 1.97842
                      CHANNELS 3 Zrotation Xrotation Yrotation
                      JOINT RightHandIndex1
                      {
                        OFFSET -5.21684 -0.091368 0.999158
                        CHANNELS 3 Zrotation Xrotation Yrotation
                        JOINT RightHandIndex2
                        {
                          OFFSET -3.61937 0 0
                          CHANNELS 3 Zrotation Xrotation Yrotation
                          JOINT RightHandIndex3
                          {
                            OFFSET -2.0521 0 0
                            CHANNELS 3 Zrotation Xrotation Yrotation
                            End Site
                            {
                              OFFSET -1.805 0 0
                            }
                          }
                        }
                      }
                    }
                    JOINT RightInHandMiddle
                    {
                      OFFSET -3.38211 0.517263 0.756737
                      CHANNELS 3 Zrotation Xrotation Yrotation
                      JOINT RightHandMiddle1
                      {
                        OFFSET -5.17411 -0.084 0.313895
                        CHANNELS 3 Zrotation Xrotation Yrotation
                        JOINT RightHandMiddle2
                        {
                          OFFSET -3.94947 0 0
                          CHANNELS 3 Zrotation Xrotation Yrotation
                          JOINT RightHandMiddle3
                          {
                            OFFSET -2.47579 0 0
                            CHANNELS 3 Zrotation Xrotation Yrotation
                            End Site
                            {
                              OFFSET -1.975 0 0
                            }
                          }
                        }
                      }
                    }
                    JOINT RightInHandRing
                    {
                      OFFSET -3.36516 0.537895 -0.128947
                      CHANNELS 3 Zrotation Xrotation Yrotation
                      JOINT RightHandRing1
                      {
                        OFFSET -4.63474 -0.022105 -0.478947
                        CHANNELS 3 Zrotation Xrotation Yrotation
                        JOINT RightHandRing2
                        {
                          OFFSET -3.44238 0 0
                          CHANNELS 3 Zrotation Xrotation Yrotation
                          JOINT RightHandRing3
                          {
                            OFFSET -2.3881 0 0
                            CHANNELS 3 Zrotation Xrotation Yrotation
                            End Site
                            {
                              OFFSET -1.857 0 0
                            }
                          }
                        }
                      }
                    }
                    JOINT RightInHandPinky
                    {
                      OFFSET -3.16105 0.469368 -1.20179
                      CHANNELS 3 Zrotation Xrotation Yrotation
                      JOINT RightHandPinky1
                      {
                        OFFSET -4.14105 -0.022105 -1.09053
                        CHANNELS 3 Zrotation Xrotation Yrotation
                        JOINT RightHandPinky2
                        {
                          OFFSET -2.75653 0 0
                          CHANNELS 3 Zrotation Xrotation Yrotation
                          JOINT RightHandPinky3
                          {
                            OFFSET -1.74189 0 0
                            CHANNELS 3 Zrotation Xrotation Yrotation
                            End Site
                            {
                              OFFSET -1.645 0 0
                            }
                          }
                        }
                      }
                    }
                  }
                }
              }
            }
            JOINT LeftShoulder
            {
              OFFSET 3.25178 6.92057 -0.0384945
              CHANNELS 3 Zrotation Xrotation Yrotation
              JOINT LeftArm
              {
                OFFSET 12.8462 -0.0383255 -0.0637898
                CHANNELS 3 Zrotation Xrotation Yrotation
                JOINT LeftForeArm
                {
                  OFFSET 26.4888 -0.0608964 -0.0673835
                  CHANNELS 3 Zrotation Xrotation Yrotation
                  JOINT LeftHand
                  {
                    OFFSET 25.9932 -0.0402352 -0.0274148
                    CHANNELS 3 Zrotation Xrotation Yrotation
                    JOINT LeftHandThumb1
                    {
                      OFFSET 2.48905 0.190105 3.12053
                      CHANNELS 3 Zrotation Xrotation Yrotation
                      JOINT LeftHandThumb2
                      {
                        OFFSET 3.68274 0 0
                        CHANNELS 3 Zrotation Xrotation Yrotation
                        JOINT LeftHandThumb3
                        {
                          OFFSET 2.55832 0 0
                          CHANNELS 3 Zrotation Xrotation Yrotation
                          End Site
                          {
                            OFFSET 2.194 0 0
                          }
                        }
                      }
                    }
                    JOINT LeftInHandIndex
                    {
                      OFFSET 3.22368 0.508421 1.97842
                      CHANNELS 3 Zrotation Xrotation Yrotation
                      JOINT LeftHandIndex1
                      {
                        OFFSET 5.21684 -0.091368 0.999158
                        CHANNELS 3 Zrotation Xrotation Yrotation
                        JOINT LeftHandIndex2
                        {
                          OFFSET 3.61937 0 0
                          CHANNELS 3 Zrotation Xrotation Yrotation
                          JOINT LeftHandIndex3
                          {
                            OFFSET 2.0521 0 0
                            CHANNELS 3 Zrotation Xrotation Yrotation
                            End Site
                            {
                              OFFSET 1.805 0 0
                            }
                          }
                        }
                      }
                    }
                    JOINT LeftInHandMiddle
                    {
                      OFFSET 3.38211 0.517263 0.756737
                      CHANNELS 3 Zrotation Xrotation Yrotation
                      JOINT LeftHandMiddle1
                      {
                        OFFSET 5.17411 -0.084 0.313895
                        CHANNELS 3 Zrotation Xrotation Yrotation
                        JOINT LeftHandMiddle2
                        {
                          OFFSET 3.94947 0 0
                          CHANNELS 3 Zrotation Xrotation Yrotation
                          JOINT LeftHandMiddle3
                          {
                            OFFSET 2.47579 0 0
                            CHANNELS 3 Zrotation Xrotation Yrotation
                            End Site
                            {
                              OFFSET 1.975 0 0
                            }
                          }
                        }
                      }
                    }
                    JOINT LeftInHandRing
                    {
                      OFFSET 3.36516 0.537895 -0.128947
                      CHANNELS 3 Zrotation Xrotation Yrotation
                      JOINT LeftHandRing1
                      {
                        OFFSET 4.63474 -0.022105 -0.478947
                        CHANNELS 3 Zrotation Xrotation Yrotation
                        JOINT LeftHandRing2
                        {
                          OFFSET 3.44238 0 0
                          CHANNELS 3 Zrotation Xrotation Yrotation
                          JOINT LeftHandRing3
                          {
                            OFFSET 2.3881 0 0
                            CHANNELS 3 Zrotation Xrotation Yrotation
                            End Site
                            {
                              OFFSET 1.857 0 0
                            }
                          }
                        }
                      }
                    }
                    JOINT LeftInHandPinky
                    {
                      OFFSET 3.16105 0.469368 -1.20179
                      CHANNELS 3 Zrotation Xrotation Yrotation
                      JOINT LeftHandPinky1
                      {
                        OFFSET 4.14105 -0.022105 -1.09053
                        CHANNELS 3 Zrotation Xrotation Yrotation
                        JOINT LeftHandPinky2
                        {
                          OFFSET 2.75653 0 0
                          CHANNELS 3 Zrotation Xrotation Yrotation
                          JOINT LeftHandPinky3
                          {
                            OFFSET 1.74189 0 0
                            CHANNELS 3 Zrotation Xrotation Yrotation
                            End Site
                            {
                              OFFSET 1.645 0 0
                            }
                          }
                        }
                      }
                    }
                  }
                }
              }
            }
          }
        }
      }
    }
  }
}
MOTION
Frames: 2
Frame Time: 0.00833333
6.000000000000000000e+02 0.000000000000000000e+00 0.000000000000000000e+00 0.000000000000000000e+00 0.000000000000000000e+00 0.000000000000000000e+00 -2.637591336187314450e+00 -1.116336438830763500e+00 2.134454910367971969e+00 -1.809037956945606984e+00 4.204472933585284622e+00 -1.109899528851674422e+00 1.287133105014291790e+00 -1.340676658812595345e+00 -3.816887003741315509e-01 -4.640254608720481011e-01 1.627741891635360039e-01 -5.538160357416762603e-01 -3.191098481201645853e+00 2.797701233410975430e+00 -4.743987805569402916e-01 1.012482718995350250e+00 -1.160544827247253385e+00 -1.060032811963741439e+00 -4.465136988686693176e-01 4.059050581959168791e-01 -2.287998696192140802e+00 2.106160438739365093e-01 4.833751073188020664e-01 1.959399765073907895e+00 6.269823199904919764e-02 -1.107685262553804312e-01 5.811202897448771720e-01 8.984372195895067026e-02 -1.129533810975383024e-01 9.357224749991204238e-01 3.382428689459304749e-02 7.309635721329531266e-02 -2.833336794691940774e-01 -1.130404164573165088e-01 -2.186143593919318284e-01 5.403446747803512196e+00 1.816926427799389065e+00 2.305454279063324563e+00 -1.007284317404469220e+01 -2.494645985256616072e+00 9.038340961547766117e-01 1.453914109711878844e+00 2.088619570500410028e+00 -3.129304722675969597e+00 -9.987818027870649651e-01 8.950887691963094639e+00 -1.086130576402695880e+01 -3.751487329824965578e+00 9.818678138267660227e-01 4.549008301618759353e-01 -9.946185299126232948e+00 0.000000000000000000e+00 0.000000000000000000e+00 0.000000000000000000e+00 -6.926721301685911357e-15 1.774642079809806622e-15 0.000000000000000000e+00 -3.242741672179546169e-15 3.758548685076007287e-15 0.000000000000000000e+00 1.832943185065458080e-15 -5.130389357278276291e-15 -4.850825707943130348e-16 0.000000000000000000e+00 0.000000000000000000e+00 0.000000000000000000e+00 0.000000000000000000e+00 -3.118396926289568779e-15 1.822995117402847768e-15 0.000000000000000000e+00 -1.457045547916459485e-15 1.316343771572626676e-15 1.832943185065458080e-15 -5.130389357278276291e-15 -4.850825707943130348e-16 0.000000000000000000e+00 -2.965356078730462524e-15 3.113696973118921967e-16 0.000000000000000000e+00 3.190957697700177111e-15 -2.636368140264135699e-15 0.000000000000000000e+00 8.852836948579117402e-16 2.555420048670824998e-15 1.832943185065458080e-15 -5.130389357278276291e-15 -4.850825707943130348e-16 0.000000000000000000e+00 0.000000000000000000e+00 0.000000000000000000e+00 0.000000000000000000e+00 -1.318806478997259053e-15 -3.961915369353062016e-16 0.000000000000000000e+00 -2.015656627366086834e-15 -5.759905305872545053e-15 1.832943185065458080e-15 -5.130389357278276291e-15 -4.850825707943130348e-16 0.000000000000000000e+00 0.000000000000000000e+00 0.000000000000000000e+00 0.000000000000000000e+00 1.495868997974582895e-17 -6.631937638521253287e-15 0.000000000000000000e+00 -1.866840232957476746e-15 4.968224986160755957e-15 1.327204276625419288e+00 -5.154202245240799840e-01 1.172055173899382075e+00 1.029066531361037651e+00 2.441411013560990995e+00 1.893262005653451041e-01 1.362777580803375876e+01 -7.136298959870160274e+00 2.317960353941307972e+01 1.947662890492619203e+00 -7.122144423434768612e-01 7.947918540800354315e+00 0.000000000000000000e+00 0.000000000000000000e+00 0.000000000000000000e+00 1.505473032647952867e-15 -1.939312191151030843e-15 0.000000000000000000e+00 1.014663642298250736e-15 1.106448620283161144e-15 0.000000000000000000e+00 -1.143441465492723144e-15 -1.723344437011136097e-15 2.970884368160252390e-15 0.000000000000000000e+00 0.000000000000000000e+00 0.000000000000000000e+00 0.000000000000000000e+00 -3.427683567760938094e-15 -1.046875938665853494e-15 0.000000000000000000e+00 -1.361048904304974196e-15 5.187713817407693556e-15 -1.143441465492723144e-15 -1.723344437011136097e-15 2.970884368160252390e-15 0.000000000000000000e+00 -3.897233689753872784e-15 3.391781412528988081e-15 0.000000000000000000e+00 -2.231669200007489425e-15 4.466997141147548793e-15 0.000000000000000000e+00 7.088837261431288846e-16 3.418586746546487646e-15 -1.143441465492723144e-15 -1.723344437011136097e-15 2.970884368160252390e-15 0.000000000000000000e+00 0.000000000000000000e+00 0.000000000000000000e+00 0.000000000000000000e+00 8.631765953950143851e-16 1.058916809149952874e-14 0.000000000000000000e+00 5.546529335565368075e-16 6.386310750534048672e-15 -1.143441465492723144e-15 -1.723344437011136097e-15 2.970884368160252390e-15 0.000000000000000000e+00 0.000000000000000000e+00 0.000000000000000000e+00 0.000000000000000000e+00 5.840605135166467350e-16 9.316528842115813457e-15 0.000000000000000000e+00 4.333814601181480301e-16 7.900564074985399754e-15
6.000000000000000000e+02 0.000000000000000000e+00 0.000000000000000000e+00 0.000000000000000000e+00 0.000000000000000000e+00 0.000000000000000000e+00 -2.674733836363622164e+00 -1.526056965096291629e+00 1.724242850868474841e+00 -1.562322675281336837e+00 4.714076196641048710e+00 -6.950419824976720173e-01 1.330483941773413115e+00 -1.747882574885282647e+00 -3.411709466723065742e-01 -4.621298350667352173e-01 2.687151105374983584e-01 -4.057089056442284014e-01 -3.055752525042128021e+00 3.430650154439000232e+00 -2.647725099751765954e-01 6.372954726219789423e-01 -1.265408083206096990e+00 -8.611314539831723680e-01 -3.177388483604438041e-01 3.347311512382171172e-01 -2.007429164348237816e+00 5.888216602934347177e-02 4.962056963651316766e-01 2.095455340446471304e+00 3.444920563177265166e-02 -1.381127414784107943e-01 6.218535449928481729e-01 3.919150024173317232e-02 -1.612265134162599589e-01 1.005345097584368963e+00 3.591173848440297467e-02 7.710240167651463694e-02 -2.907436896625742451e-01 -1.256688702647127676e-01 -2.400385026320417392e-01 5.916525920500682822e+00 1.937999268992389945e+00 2.558963117360312012e+00 -1.060931389422563953e+01 -2.684499292877665866e+00 1.139418966811787337e+00 1.618045569423856245e+00 1.781594616026442202e+00 -3.695643113332570895e+00 -9.651141524404089900e-01 9.235612981957638468e+00 -1.063116518836797475e+01 -3.957989495342538078e+00 1.301287432662566079e+00 4.420180832205247157e-01 -1.132198966501099058e+01 0.000000000000000000e+00 0.000000000000000000e+00 0.000000000000000000e+00 -7.461678090073278611e-15 1.910449500807174512e-15 0.000000000000000000e+00 -3.719314246213841681e-15 3.388331524438267630e-15 0.000000000000000000e+00 1.671938774511629556e-15 -5.221976101755222235e-15 -5.047509453168323699e-16 0.000000000000000000e+00 0.000000000000000000e+00 0.000000000000000000e+00 0.000000000000000000e+00 -3.127309526126201903e-15 1.225082503072657721e-15 0.000000000000000000e+00 -1.512641796591560536e-15 1.981004758815303262e-15 1.671938774511629556e-15 -5.221976101755222235e-15 -5.047509453168323699e-16 0.000000000000000000e+00 -2.643341160878761331e-15 7.121078529185268409e-16 0.000000000000000000e+00 2.900800396782589431e-15 -3.214712839821563617e-15 0.000000000000000000e+00 9.418378108432973724e-16 2.328651921216601141e-15 1.671938774511629556e-15 -5.221976101755222235e-15 -5.047509453168323699e-16 0.000000000000000000e+00 0.000000000000000000e+00 0.000000000000000000e+00 0.000000000000000000e+00 -1.758386020079360875e-15 -2.379042046085125040e-16 0.000000000000000000e+00 -2.257434467080219173e-15 -5.866750114306498283e-15 1.671938774511629556e-15 -5.221976101755222235e-15 -5.047509453168323699e-16 0.000000000000000000e+00 0.000000000000000000e+00 0.000000000000000000e+00 0.000000000000000000e+00 -3.618814490809096083e-16 -7.417659662403340459e-15 0.000000000000000000e+00 -1.679420704711871369e-15 5.194808606698224212e-15 1.496290184979157001e+00 -6.433584980756912319e-01 1.032637130636470557e+00 5.630367220181149435e-01 2.255956459785854573e+00 2.894463541668730322e-01 1.177328505880777065e+01 -7.716847003428189744e+00 2.130254729715588624e+01 2.184654711667993077e+00 -8.750001117398802375e-01 7.764143305184240340e+00 0.000000000000000000e+00 0.000000000000000000e+00 0.000000000000000000e+00 1.187315202889455708e-15 -2.065099055887964458e-15 0.000000000000000000e+00 1.003070280319659747e-15 1.053196104550617050e-15 0.000000000000000000e+00 -1.502009522831950117e-15 -1.483618710726360907e-15 2.910016445528862755e-15 0.000000000000000000e+00 0.000000000000000000e+00 0.000000000000000000e+00 0.000000000000000000e+00 -3.582613946093683988e-15 -6.031405232019935930e-16 0.000000000000000000e+00 -1.250787995096239180e-15 5.151445362175777543e-15 -1.502009522831950117e-15 -1.483618710726360907e-15 2.910016445528862755e-15 0.000000000000000000e+00 -4.114020657998115985e-15 4.235964267588024185e-15 0.000000000000000000e+00 -2.710251805865232780e-15 4.559714682563626008e-15 0.000000000000000000e+00 1.146007956549805435e-15 3.882420494577671082e-15 -1.502009522831950117e-15 -1.483618710726360907e-15 2.910016445528862755e-15 0.000000000000000000e+00 0.000000000000000000e+00 0.000000000000000000e+00 0.000000000000000000e+00 1.093238152273873148e-15 1.124192355607970249e-14 0.000000000000000000e+00 8.241358783709874091e-16 6.629121046772604116e-15 -1.502009522831950117e-15 -1.483618710726360907e-15 2.910016445528862755e-15 0.000000000000000000e+00 0.000000000000000000e+00 0.000000000000000000e+00 0.000000000000000000e+00 7.427297931079261698e-16 1.002410835451650459e-14 0.000000000000000000e+00 2.562895133250460125e-16 7.905067133700725783e-15
